<?xml version="1.0" encoding="utf-8"?>
<!-- Generator: Adobe Illustrator 21.0.0, SVG Export Plug-In . SVG Version: 6.00 Build 0)  -->
<svg version="1.1" id="Capa_1" xmlns="http://www.w3.org/2000/svg" xmlns:xlink="http://www.w3.org/1999/xlink" x="0px" y="0px"
	 viewBox="0 0 363 363" style="enable-background:new 0 0 363 363;" xml:space="preserve">
<style type="text/css">
	.st0{fill:#9AC054;}
</style>
<g>
	<g>
		<g>
			<path class="st0" d="M181.5,363C81.4,363,0,281.6,0,181.5C0,81.4,81.4,0,181.5,0C281.6,0,363,81.4,363,181.5
				C363,281.6,281.6,363,181.5,363z M181.5,11.7c-93.6,0-169.8,76.2-169.8,169.8s76.2,169.8,169.8,169.8
				c93.6,0,169.8-76.2,169.8-169.8S275.1,11.7,181.5,11.7z"/>
		</g>
	</g>
	<g>
		<polygon class="st0" points="148,258.9 83.1,194 91.3,185.8 148,242.4 271.2,119.2 279.5,127.4 		"/>
	</g>
</g>
</svg>
